HIERARCHY
ROOT joint_0
{
	OFFSET 0.000000 0.000000 0.000000
	CHANNELS 6 Xposition Yposition Zposition Zrotation Yrotation Xrotation 
	JOINT joint_1
	{
		OFFSET 8.185791 -2.713684 100.414917
		CHANNELS 3 Zrotation Yrotation Xrotation
		JOINT joint_2
		{
			OFFSET -4.376465 -1.111145 91.934082
			CHANNELS 3 Zrotation Yrotation Xrotation
			JOINT joint_3
			{
				OFFSET -6.985840 -1.054016 91.669922
				CHANNELS 3 Zrotation Yrotation Xrotation
				JOINT joint_4
				{
					OFFSET 0.150391 -4.451904 123.526001
					CHANNELS 3 Zrotation Yrotation Xrotation
					JOINT joint_5
					{
						OFFSET 19.754150 -8.123901 80.916992
						CHANNELS 3 Zrotation Yrotation Xrotation
						End Site
						{
							OFFSET 0.000000 0.000000 0.000000
						}
					}
				}
				JOINT joint_6
				{
					OFFSET -6.477539 -28.517334 68.237061
					CHANNELS 3 Zrotation Yrotation Xrotation
					JOINT joint_7
					{
						OFFSET -20.564453 -115.426208 -21.139038
						CHANNELS 3 Zrotation Yrotation Xrotation
						JOINT joint_8
						{
							OFFSET 18.981934 -19.826172 -267.898926
							CHANNELS 3 Zrotation Yrotation Xrotation
							JOINT joint_9
							{
								OFFSET 11.562744 -19.325867 -235.478027
								CHANNELS 3 Zrotation Yrotation Xrotation
								End Site
								{
									OFFSET 0.000000 0.000000 0.000000
								}
							}
						}
					}
				}
				JOINT joint_10
				{
					OFFSET 7.033936 23.504700 70.088989
					CHANNELS 3 Zrotation Yrotation Xrotation
					JOINT joint_11
					{
						OFFSET 36.629639 112.486816 -14.036987
						CHANNELS 3 Zrotation Yrotation Xrotation
						JOINT joint_12
						{
							OFFSET 41.355225 -7.048523 -266.019897
							CHANNELS 3 Zrotation Yrotation Xrotation
							JOINT joint_13
							{
								OFFSET 5.858887 29.785156 -234.603027
								CHANNELS 3 Zrotation Yrotation Xrotation
								End Site
								{
									OFFSET 0.000000 0.000000 0.000000
								}
							}
						}
					}
				}
			}
		}
	}
	JOINT joint_14
	{
		OFFSET -8.917725 -79.985535 -99.035034
		CHANNELS 3 Zrotation Yrotation Xrotation
		JOINT joint_15
		{
			OFFSET -32.739502 -31.478882 -502.570984
			CHANNELS 3 Zrotation Yrotation Xrotation
			JOINT joint_16
			{
				OFFSET 7.393066 -29.352966 -399.008011
				CHANNELS 3 Zrotation Yrotation Xrotation
				JOINT joint_17
				{
					OFFSET 178.013916 -26.060303 -71.875002
					CHANNELS 3 Zrotation Yrotation Xrotation
					End Site
					{
						OFFSET 0.000000 0.000000 0.000000
					}
				}
			}
		}
	}
	JOINT joint_18
	{
		OFFSET 1.900879 81.159851 -98.481018
		CHANNELS 3 Zrotation Yrotation Xrotation
		JOINT joint_19
		{
			OFFSET -15.120850 31.602051 -503.400024
			CHANNELS 3 Zrotation Yrotation Xrotation
			JOINT joint_20
			{
				OFFSET -16.653076 23.887695 -399.091988
				CHANNELS 3 Zrotation Yrotation Xrotation
				JOINT joint_21
				{
					OFFSET 179.618164 -1.217651 -72.592001
					CHANNELS 3 Zrotation Yrotation Xrotation
					End Site
					{
						OFFSET 0.000000 0.000000 0.000000
					}
				}
			}
		}
	}
}
MOTION
Frames: 13
Frame Time: 0.016667
-2893.093994 776.999207 1095.671021 -2.294533 10.182302 -0.872107 3.329101 -0.162202 -0.530716 3.260362 -0.011531 0.212282 3.137850 -0.056169 -0.286479 -0.694450 -5.613505 -0.090582 0.000000 0.000000 0.000000 -4.287389 13.012373 -1.886692 1.649031 12.100613 -4.389698 1.066064 -16.462175 -4.856619 0.000000 0.000000 0.000000 0.301996 3.435490 7.731734 -0.813119 6.734992 -2.038946 -0.192049 -0.537537 -5.250032 0.000000 0.000000 0.000000 2.064202 -26.136584 -6.451986 -0.180443 60.704207 4.546683 5.593728 6.547697 2.544065 0.000000 0.000000 0.000000 -1.390180 -4.519792 -1.557013 0.989234 24.322639 2.615022 -0.418433 -3.403701 -0.109153 0.000000 0.000000 0.000000 
-2874.153320 776.362305 1093.197998 -2.513063 10.434230 -0.862785 3.560393 0.464336 -0.796976 3.224286 -0.168618 0.298103 3.016763 0.046583 -0.295902 -0.711074 -5.492748 -0.031880 0.000000 0.000000 0.000000 -4.541267 13.382458 -1.804231 1.884827 12.355001 -4.925484 1.126049 -17.110136 -5.104269 0.000000 0.000000 0.000000 0.574382 2.991225 8.012397 -0.518381 6.242919 -1.603413 -0.224867 -0.541684 -6.266304 0.000000 0.000000 0.000000 1.043500 -29.913172 -6.243146 -0.444378 65.921887 3.383932 4.422997 8.243917 2.163885 0.000000 0.000000 0.000000 -1.654563 -3.967910 -1.601439 0.747132 24.827480 2.609908 -0.666223 -2.940878 -0.170200 0.000000 0.000000 0.000000 
-2854.603027 775.581604 1090.311035 -2.702988 10.637390 -0.931454 3.812880 1.150799 -0.834703 3.116431 -0.332389 0.332787 2.825773 0.185361 -0.263731 -0.724602 -5.413620 -0.004530 0.000000 0.000000 0.000000 -4.625390 13.714101 -1.758918 2.152876 12.562253 -5.318021 1.159125 -17.331294 -5.570210 0.000000 0.000000 0.000000 1.052924 2.587066 8.231613 -0.298116 5.796017 -1.277931 -0.297216 -0.747890 -7.310929 0.000000 0.000000 0.000000 -0.239483 -33.414180 -5.536702 -1.079961 69.581379 1.917489 1.480066 7.787336 0.737649 0.000000 0.000000 0.000000 -1.609550 -3.142182 -1.667534 0.630115 24.941765 2.756921 -0.718122 -2.540925 -0.162994 0.000000 0.000000 0.000000 
-2834.588623 774.628540 1086.891968 -2.884727 10.800010 -1.074197 4.069576 1.875234 -0.684136 2.955728 -0.494201 0.319273 2.591988 0.354410 -0.202744 -0.730087 -5.337043 -0.009331 0.000000 0.000000 0.000000 -4.604059 14.037851 -1.733324 2.451992 12.749366 -5.630190 1.181297 -17.346101 -6.154410 0.000000 0.000000 0.000000 1.715318 2.168767 8.394698 -0.103364 5.326253 -1.013934 -0.391730 -1.033729 -8.392594 0.000000 0.000000 0.000000 -1.743809 -36.793633 -4.364791 -2.071173 72.117724 0.258546 -2.867601 5.444066 -1.716369 0.000000 0.000000 0.000000 -1.338644 -2.104516 -1.730025 0.597013 24.778718 3.041415 -0.630322 -2.222357 -0.107954 0.000000 0.000000 0.000000 
-2814.207031 773.190674 1083.285034 -3.010809 10.982952 -1.214337 4.311145 2.624183 -0.458952 2.780580 -0.653547 0.283648 2.362616 0.527912 -0.130484 -0.740553 -5.310106 -0.025349 0.000000 0.000000 0.000000 -4.581753 14.317892 -1.689656 2.751150 12.899156 -5.906493 1.193756 -17.118470 -6.707869 0.000000 0.000000 0.000000 2.223046 1.787491 8.531039 0.036948 4.903092 -0.744945 -0.517613 -1.519361 -9.428971 0.000000 0.000000 0.000000 -2.904089 -40.002204 -3.187956 -2.903628 73.410643 -0.930111 -6.199949 2.251522 -3.952744 0.000000 0.000000 0.000000 -1.025111 -1.111529 -1.713886 0.586088 24.643055 3.246447 -0.533300 -1.758938 -0.048811 0.000000 0.000000 0.000000 
-2793.643555 771.049500 1079.786987 -3.109540 11.251546 -1.309054 4.530671 3.375349 -0.227768 2.635586 -0.792268 0.242466 2.194550 0.684271 -0.056415 -0.768228 -5.395684 -0.044184 0.000000 0.000000 0.000000 -4.627267 14.499876 -1.613724 3.023481 12.980637 -6.153099 1.194248 -16.556421 -7.143304 0.000000 0.000000 0.000000 2.325239 1.478365 8.673025 0.097655 4.581877 -0.433790 -0.685493 -2.357801 -10.370952 0.000000 0.000000 0.000000 -3.326973 -43.106263 -2.397086 -3.187639 73.297459 -1.270905 -7.058155 -0.973225 -4.754557 0.000000 0.000000 0.000000 -0.766239 -0.374200 -1.578779 0.606963 24.755426 3.212862 -0.463566 -0.997710 0.003021 0.000000 0.000000 0.000000 
-2772.868652 768.320435 1076.265991 -3.163067 11.562139 -1.368421 4.689974 4.175801 0.033524 2.510454 -0.922302 0.193842 2.086027 0.821775 0.022784 -0.809185 -5.572854 -0.068681 0.000000 0.000000 0.000000 -4.714965 14.592999 -1.522874 3.279890 13.002602 -6.351817 1.182223 -15.676091 -7.499875 0.000000 0.000000 0.000000 2.144406 1.223330 8.823440 0.090761 4.341408 -0.107671 -0.887735 -3.518804 -11.231184 0.000000 0.000000 0.000000 -3.204044 -46.020277 -1.950870 -3.094770 71.565069 -1.027990 -6.186496 -4.121776 -4.473990 0.000000 0.000000 0.000000 -0.519699 0.223091 -1.362789 0.682633 24.996949 3.028530 -0.369463 -0.007997 0.063745 0.000000 0.000000 0.000000 
-2751.300537 765.074951 1072.428955 -2.992951 11.848574 -1.356872 4.714887 4.998771 0.272595 2.356582 -1.067476 0.159682 1.968141 0.937922 0.100048 -0.847347 -5.713209 -0.083827 0.000000 0.000000 0.000000 -4.787950 14.716755 -1.422478 3.543873 13.056855 -6.543315 1.168043 -14.743252 -7.715495 0.000000 0.000000 0.000000 1.864463 1.040270 8.991194 0.037655 4.182081 0.237807 -1.090640 -4.792630 -11.922480 0.000000 0.000000 0.000000 -2.821519 -48.417670 -1.769181 -2.908610 68.602338 -0.416166 -4.568904 -6.869597 -3.837987 0.000000 0.000000 0.000000 -0.405886 0.829884 -1.074586 0.653298 25.275629 2.763436 -0.417593 1.177256 0.078000 0.000000 0.000000 0.000000 
-2728.546631 761.276489 1068.250000 -2.606387 12.155047 -1.320068 4.541333 5.661301 0.507670 2.187107 -1.168150 0.136521 1.865709 1.047910 0.170720 -0.873341 -5.748666 -0.081426 0.000000 0.000000 0.000000 -4.795780 14.936010 -1.295801 3.832556 13.198289 -6.773931 1.160800 -13.917902 -7.743850 0.000000 0.000000 0.000000 1.577861 0.942089 9.153099 -0.044061 4.092739 0.625040 -1.269508 -6.022057 -12.358597 0.000000 0.000000 0.000000 -2.248408 -50.178027 -1.723199 -2.721745 64.480004 0.521453 -2.623383 -9.502712 -3.165229 0.000000 0.000000 0.000000 -0.479957 1.481986 -0.653776 0.452850 25.460945 2.415579 -0.691017 2.603927 0.021278 0.000000 0.000000 0.000000 
-2704.829346 756.899414 1063.840942 -2.029652 12.483422 -1.256567 4.171093 6.226815 0.759314 2.013091 -1.248425 0.112775 1.791250 1.159993 0.238611 -0.892451 -5.729846 -0.068130 0.000000 0.000000 0.000000 -4.746948 15.207266 -1.131276 4.139723 13.391332 -7.033861 1.157483 -13.103753 -7.605220 0.000000 0.000000 0.000000 1.223972 0.924576 9.298385 -0.161194 4.071518 1.058094 -1.435788 -7.280911 -12.557724 0.000000 0.000000 0.000000 -1.337676 -51.258329 -1.937169 -2.250705 58.652066 1.838288 -0.072807 -11.555768 -2.264483 0.000000 0.000000 0.000000 -0.722155 2.146444 -0.099349 0.135491 25.569035 1.960437 -1.135647 4.319339 -0.087488 0.000000 0.000000 0.000000 
-2680.183350 752.302734 1058.458008 -1.191409 12.715353 -1.057612 3.717996 6.847442 0.944065 1.832012 -1.383997 0.111424 1.698837 1.246085 0.294273 -0.896387 -5.587721 -0.026562 0.000000 0.000000 0.000000 -4.734782 15.613403 -0.994153 4.479711 13.646219 -7.246340 1.163222 -12.376987 -7.335724 0.000000 0.000000 0.000000 0.841219 0.998846 9.459269 -0.326055 4.145021 1.525217 -1.615548 -8.613288 -12.697683 0.000000 0.000000 0.000000 -0.410296 -51.640172 -2.380178 -1.647168 52.232556 3.123879 2.025723 -12.351714 -1.469678 0.000000 0.000000 0.000000 -1.170073 2.828739 0.442625 -0.328876 25.899791 1.470730 -1.804505 6.091494 -0.264334 0.000000 0.000000 0.000000 
-2654.466553 747.697754 1051.446045 -0.310080 12.940233 -0.774257 3.275514 7.280605 1.060733 1.742361 -1.456280 0.134084 1.695514 1.281410 0.308601 -0.879262 -5.246546 0.072983 0.000000 0.000000 0.000000 -4.857500 16.261696 -0.937939 4.894374 13.989707 -7.338009 1.194195 -11.876740 -6.944622 0.000000 0.000000 0.000000 0.414805 1.190956 9.678122 -0.559972 4.364305 2.031091 -1.830119 -10.094150 -12.915025 0.000000 0.000000 0.000000 0.404728 -51.537757 -2.863860 -1.157883 45.937578 4.325349 3.126709 -12.576029 -1.032378 0.000000 0.000000 0.000000 -1.773877 3.504585 0.936430 -0.897771 26.413637 0.953919 -2.680185 7.937683 -0.497773 0.000000 0.000000 0.000000 
-2627.668213 742.944336 1043.089966 0.593529 13.202975 -0.456120 2.820510 7.470455 1.163859 1.735434 -1.452381 0.157718 1.783938 1.294713 0.291831 -0.844273 -4.735434 0.228359 0.000000 0.000000 0.000000 -5.080808 17.129419 -0.918011 5.369518 14.405376 -7.351442 1.251329 -11.587677 -6.422397 0.000000 0.000000 0.000000 -0.079533 1.500981 9.905381 -0.862381 4.712366 2.613115 -2.071519 -11.709512 -13.135228 0.000000 0.000000 0.000000 1.237778 -50.922630 -3.365470 -0.687062 39.185764 5.540097 3.624117 -12.567753 -0.812780 0.000000 0.000000 0.000000 -2.540625 4.181672 1.447719 -1.564175 26.951229 0.364964 -3.771890 10.014685 -0.790366 0.000000 0.000000 0.000000 
